<?xml version="1.0" standalone="no"?>
<!DOCTYPE svg PUBLIC "-//W3C//DTD SVG 20010904//EN"
 "http://www.w3.org/TR/2001/REC-SVG-20010904/DTD/svg10.dtd">
<svg version="1.0" xmlns="http://www.w3.org/2000/svg"
 width="50.000000pt" height="50.000000pt" viewBox="0 0 50.000000 50.000000"
 preserveAspectRatio="xMidYMid meet">

<g transform="translate(0.000000,50.000000) scale(0.100000,-0.100000)"
fill="#000000" stroke="none">
<path d="M17 454 c-4 -4 -7 -99 -7 -211 l0 -203 240 0 240 0 -2 208 -3 207
-231 3 c-127 1 -233 -1 -237 -4z m453 -29 c0 -13 -31 -15 -220 -15 -189 0
-220 2 -220 15 0 13 31 15 220 15 189 0 220 -2 220 -15z m0 -200 l0 -165 -220
0 -220 0 0 165 0 165 220 0 220 0 0 -165z"/>
<path d="M271 318 c-5 -13 -25 -63 -45 -112 -32 -81 -39 -115 -18 -90 8 9 92
209 92 219 0 15 -22 2 -29 -17z"/>
<path d="M123 263 c-18 -9 -33 -21 -33 -27 0 -11 54 -46 71 -46 19 0 8 17 -18
29 l-27 13 27 16 c15 9 27 20 27 24 0 11 -10 9 -47 -9z"/>
<path d="M330 272 c0 -4 12 -15 27 -24 l27 -16 -27 -13 c-26 -12 -37 -29 -18
-29 17 0 71 35 71 46 0 6 -16 18 -35 27 -40 19 -45 20 -45 9z"/>
</g>
</svg>
